<?xml version="1.0" standalone="no"?>
<!DOCTYPE svg PUBLIC "-//W3C//DTD SVG 20010904//EN"
 "http://www.w3.org/TR/2001/REC-SVG-20010904/DTD/svg10.dtd">
<svg version="1.0" xmlns="http://www.w3.org/2000/svg"
 width="654.000000pt" height="227.000000pt" viewBox="0 0 654.000000 227.000000"
 preserveAspectRatio="xMidYMid meet">

<g transform="translate(0.000000,227.000000) scale(0.100000,-0.100000)"
fill="#000000" stroke="none">
<path d="M705 1936 l-480 -261 0 -540 0 -540 483 -262 482 -261 483 261 482
262 0 540 0 540 -484 262 c-266 145 -484 263 -485 262 -1 0 -217 -119 -481
-263z m925 -94 l425 -231 0 -476 0 -476 -432 -235 -433 -235 -432 235 -433
235 0 476 0 476 430 234 c237 129 435 233 440 231 6 -2 202 -108 435 -234z"/>
<path d="M1550 1506 c-116 -22 -197 -82 -242 -181 -20 -43 -23 -66 -23 -165 0
-100 3 -122 24 -168 29 -65 94 -124 170 -154 73 -29 264 -32 324 -6 l37 17 0
75 0 76 -30 0 c-29 0 -30 -1 -30 -49 0 -61 -14 -74 -89 -79 -133 -10 -239 57
-276 173 -26 83 -18 212 17 280 48 92 108 127 223 128 99 0 113 -9 117 -81 3
-54 4 -57 31 -60 l28 -3 -3 88 -3 88 -35 11 c-58 19 -170 24 -240 10z"/>
<path d="M517 1504 c-4 -4 -7 -18 -7 -31 0 -21 5 -23 45 -23 l45 0 0 -290 0
-290 -45 0 c-41 0 -45 -2 -45 -23 0 -24 1 -24 156 -30 240 -8 346 15 427 97
77 77 111 200 89 327 -15 89 -40 137 -95 185 -79 69 -114 77 -352 82 -116 2
-213 0 -218 -4z m405 -68 c51 -24 96 -71 121 -126 31 -67 30 -225 -2 -295 -48
-107 -110 -144 -243 -145 l-88 0 0 296 0 296 88 -4 c55 -3 101 -11 124 -22z"/>
<path d="M4397 1696 c-89 -25 -167 -114 -167 -192 0 -56 -7 -64 -62 -64 l-49
0 3 -37 c3 -38 3 -38 51 -41 l47 -3 0 -245 0 -244 -40 0 c-38 0 -40 -2 -40
-30 l0 -30 170 0 170 0 0 30 0 30 -65 0 -65 0 0 245 0 245 75 0 75 0 0 40 0
40 -75 0 -75 0 0 43 c0 102 38 156 114 164 l46 6 0 -42 0 -41 55 0 55 0 0 59
c0 47 -4 60 -17 66 -36 14 -159 15 -206 1z"/>
<path d="M2738 1653 l-138 -4 0 -34 0 -35 55 0 55 0 0 -350 0 -350 -55 0 -55
0 0 -35 0 -35 170 0 170 0 0 35 0 35 -50 0 -50 0 0 145 0 145 64 0 64 0 118
-180 117 -180 99 0 99 0 -3 33 c-3 29 -6 32 -40 35 -35 3 -44 12 -153 152 -63
82 -115 151 -115 154 0 2 21 15 46 27 25 13 63 42 84 65 65 71 73 183 19 271
-42 68 -165 114 -294 111 -38 -1 -132 -4 -207 -5z m326 -92 c46 -29 66 -72 66
-141 0 -84 -37 -144 -104 -170 -16 -6 -65 -14 -108 -17 l-78 -6 0 183 0 182
93 -4 c76 -3 100 -8 131 -27z"/>
<path d="M3644 1432 c-134 -48 -190 -148 -182 -331 3 -85 7 -103 34 -151 56
-99 152 -150 281 -150 74 0 153 27 194 66 26 25 27 28 12 48 l-16 22 -45 -23
c-63 -32 -162 -32 -223 0 -54 29 -96 93 -105 160 l-7 47 206 0 c133 0 208 4
212 10 4 6 7 41 7 79 0 153 -76 229 -237 238 -60 3 -92 -1 -131 -15z m178 -53
c28 -15 47 -51 58 -109 17 -92 20 -90 -146 -90 l-145 0 6 38 c16 96 53 154
111 172 31 10 88 4 116 -11z"/>
<path d="M4794 1432 c-134 -48 -190 -148 -182 -331 3 -85 7 -103 34 -151 56
-99 152 -150 281 -150 74 0 153 27 194 66 26 25 27 28 12 48 l-16 22 -45 -23
c-63 -32 -162 -32 -223 0 -54 29 -96 93 -105 160 l-7 47 206 0 c133 0 208 4
212 10 4 6 7 41 7 79 0 153 -76 229 -237 238 -60 3 -92 -1 -131 -15z m178 -53
c28 -15 47 -51 58 -109 17 -92 20 -90 -146 -90 l-145 0 6 38 c16 96 53 154
111 172 31 10 88 4 116 -11z"/>
<path d="M5950 1441 c-88 -29 -130 -77 -130 -149 0 -81 43 -129 186 -209 134
-74 163 -125 106 -183 -49 -48 -153 -50 -204 -3 -12 11 -18 31 -18 60 l0 43
-40 0 -40 0 0 -76 0 -75 48 -22 c70 -32 228 -32 295 2 118 58 141 183 49 268
-15 13 -70 49 -124 79 -109 61 -140 93 -136 137 5 46 47 72 118 72 75 -1 90
-14 90 -76 l0 -49 35 0 35 0 0 79 0 79 -32 12 c-41 15 -204 23 -238 11z"/>
<path d="M5270 1410 c0 -29 2 -30 45 -30 l45 0 0 -255 0 -255 -45 0 c-43 0
-45 -1 -45 -30 l0 -30 160 0 160 0 0 30 c0 29 -1 30 -50 30 l-50 0 0 193 0
193 29 34 c28 34 32 35 112 40 l84 5 3 53 3 52 -58 0 c-51 0 -63 -4 -97 -32
-21 -17 -47 -45 -57 -62 l-19 -31 0 63 0 62 -110 0 -110 0 0 -30z"/>
</g>
</svg>
